<?xml version="1.0" encoding="UTF-8" standalone="no"?>
<svg
   width="220"
   height="160"
   version="1.1"
   id="svg221"
   sodipodi:docname="assets.svg"
   inkscape:version="1.4.2 (ebf0e940d0, 2025-05-08)"
   xml:space="preserve"
   xmlns:inkscape="http://www.inkscape.org/namespaces/inkscape"
   xmlns:sodipodi="http://sodipodi.sourceforge.net/DTD/sodipodi-0.dtd"
   xmlns="http://www.w3.org/2000/svg"
   xmlns:svg="http://www.w3.org/2000/svg"><sodipodi:namedview
     id="namedview221"
     pagecolor="#b8b8b8"
     bordercolor="#000000"
     borderopacity="0.25"
     inkscape:showpageshadow="2"
     inkscape:pageopacity="0.0"
     inkscape:pagecheckerboard="0"
     inkscape:deskcolor="#d1d1d1"
     inkscape:zoom="2.2518518"
     inkscape:cx="255.78948"
     inkscape:cy="71.496711"
     inkscape:window-width="1920"
     inkscape:window-height="1007"
     inkscape:window-x="0"
     inkscape:window-y="0"
     inkscape:window-maximized="1"
     inkscape:current-layer="svg221" /><defs
     id="theme_colors" /><g
     id="combobox-arrow-dark"
     transform="translate(84.180081,-36.154605)"><rect
       x="94"
       y="57.007"
       width="28"
       height="28"
       opacity="0"
       stroke-width="1.5565"
       style="paint-order:markers fill stroke"
       id="rect194" /><g
       transform="matrix(1.1178,0,0,1.1178,7.2803,299.26)"
       fill="#ffffff"
       fill-rule="evenodd"
       id="g195"><path
         d="m 89.779,-212.11 -4.5681,4.2826 c 0,0 0,1.2236 1.3094,1.2193 l 3.585,-3.6665 3.5892,3.6708 c 1.3052,0 1.3052,-1.2236 1.3052,-1.2236 l -4.5681,-4.2826 c 0,0 -0.32629,-0.30589 -0.65258,0 z"
         id="path194" /><path
         d="m 89.779,-197.18 -4.5681,-4.2826 c 0,0 0,-1.2236 1.3094,-1.2193 l 3.585,3.6665 3.5892,-3.6708 c 1.3052,0 1.3052,1.2236 1.3052,1.2236 l -4.5681,4.2826 c 0,0 -0.32629,0.30589 -0.65258,0 z"
         id="path195" /></g></g><g
     id="slider-horz-scale-has-marks-below"
     transform="translate(-247.002,169.64)"><rect
       x="265"
       y="-148.64"
       width="24"
       height="24"
       opacity="0"
       stroke-width="0.56569"
       style="paint-order:fill markers stroke"
       id="rect203" /><path
       d="m 272,-145.64 c -2,0 -3,2 -3,3 v 6 l 8,9 8,-9 v -6 c 0,-1 -1,-3 -3,-3 z"
       fill="#ffffff"
       stroke="#000000"
       stroke-linecap="square"
       stroke-opacity="0.19608"
       stroke-width="2"
       style="paint-order:stroke markers fill"
       id="path203" /></g><g
     id="slider-horz-scale-has-marks-below-hover"
     transform="translate(-217.002,169.64)"><rect
       x="265"
       y="-148.64"
       width="24"
       height="24"
       opacity="0"
       stroke-width="0.56569"
       style="paint-order:fill markers stroke"
       id="rect204" /><path
       d="m 272,-145.64 c -2,0 -3,2 -3,3 v 6 l 8,9 8,-9 v -6 c 0,-1 -1,-3 -3,-3 z"
       fill="#f9f9f9"
       stroke="#000000"
       stroke-linecap="square"
       stroke-opacity="0.19608"
       stroke-width="2"
       style="paint-order:stroke markers fill"
       id="path204" /></g><g
     id="slider-horz-scale-has-marks-below-active"
     transform="translate(-187.002,169.64)"><rect
       x="265"
       y="-148.64"
       width="24"
       height="24"
       opacity="0"
       stroke-width="0.56569"
       style="paint-order:fill markers stroke"
       id="rect205" /><path
       d="m 272,-145.64 c -2,0 -3,2 -3,3 v 6 l 8,9 8,-9 v -6 c 0,-1 -1,-3 -3,-3 z"
       fill="#f2f2f2"
       stroke="#000000"
       stroke-linecap="square"
       stroke-opacity="0.19608"
       stroke-width="2"
       style="paint-order:stroke markers fill"
       id="path205" /></g><g
     id="slider-horz-scale-has-marks-below-insensitive"
     transform="translate(-157.002,169.64)"><rect
       x="265"
       y="-148.64"
       width="24"
       height="24"
       opacity="0"
       stroke-width="0.56569"
       style="paint-order:fill markers stroke"
       id="rect206" /><path
       d="m 272,-145.64 c -2,0 -3,2 -3,3 v 6 l 8,9 8,-9 v -6 c 0,-1 -1,-3 -3,-3 z"
       fill="#ececec"
       stroke="#000000"
       stroke-linecap="square"
       stroke-opacity="0.19608"
       stroke-width="2"
       style="paint-order:stroke markers fill"
       id="path206" /></g><g
     id="slider-horz-scale-has-marks-above"
     transform="matrix(1,0,0,-1,-247.002,-73.64)"><rect
       x="265"
       y="-148.64"
       width="24"
       height="24"
       opacity="0"
       stroke-width="0.56569"
       style="paint-order:fill markers stroke"
       id="rect207" /><path
       d="m 272,-145.64 c -2,0 -3,2 -3,3 v 6 l 8,9 8,-9 v -6 c 0,-1 -1,-3 -3,-3 z"
       fill="#ffffff"
       stroke="#000000"
       stroke-linecap="square"
       stroke-opacity="0.19608"
       stroke-width="2"
       style="paint-order:stroke markers fill"
       id="path207" /></g><g
     id="slider-horz-scale-has-marks-above-hover"
     transform="matrix(1,0,0,-1,-217.002,-73.64)"><rect
       x="265"
       y="-148.64"
       width="24"
       height="24"
       opacity="0"
       stroke-width="0.56569"
       style="paint-order:fill markers stroke"
       id="rect208" /><path
       d="m 272,-145.64 c -2,0 -3,2 -3,3 v 6 l 8,9 8,-9 v -6 c 0,-1 -1,-3 -3,-3 z"
       fill="#f9f9f9"
       stroke="#000000"
       stroke-linecap="square"
       stroke-opacity="0.19608"
       stroke-width="2"
       style="paint-order:stroke markers fill"
       id="path208" /></g><g
     id="slider-horz-scale-has-marks-above-active"
     transform="matrix(1,0,0,-1,-187.002,-73.64)"><rect
       x="265"
       y="-148.64"
       width="24"
       height="24"
       opacity="0"
       stroke-width="0.56569"
       style="paint-order:fill markers stroke"
       id="rect209" /><path
       d="m 272,-145.64 c -2,0 -3,2 -3,3 v 6 l 8,9 8,-9 v -6 c 0,-1 -1,-3 -3,-3 z"
       fill="#f2f2f2"
       stroke="#000000"
       stroke-linecap="square"
       stroke-opacity="0.19608"
       stroke-width="2"
       style="paint-order:stroke markers fill"
       id="path209" /></g><g
     id="slider-horz-scale-has-marks-above-insensitive"
     transform="matrix(1,0,0,-1,-157.002,-73.64)"><rect
       x="265"
       y="-148.64"
       width="24"
       height="24"
       opacity="0"
       stroke-width="0.56569"
       style="paint-order:fill markers stroke"
       id="rect210" /><path
       d="m 272,-145.64 c -2,0 -3,2 -3,3 v 6 l 8,9 8,-9 v -6 c 0,-1 -1,-3 -3,-3 z"
       fill="#ececec"
       stroke="#000000"
       stroke-linecap="square"
       stroke-opacity="0.19608"
       stroke-width="2"
       style="paint-order:stroke markers fill"
       id="path210" /></g><g
     id="slider-vert-scale-has-marks-below"
     transform="rotate(-90,268.319,101.683)"><rect
       x="265"
       y="-148.64"
       width="24"
       height="24"
       opacity="0"
       stroke-width="0.56569"
       style="paint-order:fill markers stroke"
       id="rect211" /><path
       d="m 272,-145.64 c -2,0 -3,2 -3,3 v 6 l 8,9 8,-9 v -6 c 0,-1 -1,-3 -3,-3 z"
       fill="#ffffff"
       stroke="#000000"
       stroke-linecap="square"
       stroke-opacity="0.19608"
       stroke-width="2"
       style="paint-order:stroke markers fill"
       id="path211" /></g><g
     id="slider-vert-scale-has-marks-below-hover"
     transform="rotate(-90,282.07886,85.44286)"><rect
       x="265"
       y="-148.64"
       width="24"
       height="24"
       opacity="0"
       stroke-width="0.56569"
       style="paint-order:fill markers stroke"
       id="rect212" /><path
       d="m 272,-145.64 c -2,0 -3,2 -3,3 v 6 l 8,9 8,-9 v -6 c 0,-1 -1,-3 -3,-3 z"
       fill="#f9f9f9"
       stroke="#000000"
       stroke-linecap="square"
       stroke-opacity="0.19608"
       stroke-width="2"
       style="paint-order:stroke markers fill"
       id="path212" /></g><g
     id="slider-vert-scale-has-marks-below-active"
     transform="rotate(-90,297.07886,70.44286)"><rect
       x="265"
       y="-148.64"
       width="24"
       height="24"
       opacity="0"
       stroke-width="0.56569"
       style="paint-order:fill markers stroke"
       id="rect213" /><path
       d="m 272,-145.64 c -2,0 -3,2 -3,3 v 6 l 8,9 8,-9 v -6 c 0,-1 -1,-3 -3,-3 z"
       fill="#f2f2f2"
       stroke="#000000"
       stroke-linecap="square"
       stroke-opacity="0.19608"
       stroke-width="2"
       style="paint-order:stroke markers fill"
       id="path213" /></g><g
     id="slider-vert-scale-has-marks-below-insensitive"
     transform="rotate(-90,312.07886,55.44286)"><rect
       x="265"
       y="-148.64"
       width="24"
       height="24"
       opacity="0"
       stroke-width="0.56569"
       style="paint-order:fill markers stroke"
       id="rect214" /><path
       d="m 272,-145.64 c -2,0 -3,2 -3,3 v 6 l 8,9 8,-9 v -6 c 0,-1 -1,-3 -3,-3 z"
       fill="#ececec"
       stroke="#000000"
       stroke-linecap="square"
       stroke-opacity="0.19608"
       stroke-width="2"
       style="paint-order:stroke markers fill"
       id="path214" /></g><g
     id="slider-vert-scale-has-marks-above"
     transform="matrix(0,-1,-1,0,-106.6398,400)"><rect
       x="265"
       y="-148.64"
       width="24"
       height="24"
       opacity="0"
       stroke-width="0.56569"
       style="paint-order:fill markers stroke"
       id="rect215" /><path
       d="m 272,-145.64 c -2,0 -3,2 -3,3 v 6 l 8,9 8,-9 v -6 c 0,-1 -1,-3 -3,-3 z"
       fill="#ffffff"
       stroke="#000000"
       stroke-linecap="square"
       stroke-opacity="0.19608"
       stroke-width="2"
       style="paint-order:stroke markers fill"
       id="path215" /></g><g
     id="slider-vert-scale-has-marks-above-hover"
     transform="matrix(0,-1,-1,0,-76.639999,397.51972)"><rect
       x="265"
       y="-148.64"
       width="24"
       height="24"
       opacity="0"
       stroke-width="0.56569"
       style="paint-order:fill markers stroke"
       id="rect216" /><path
       d="m 272,-145.64 c -2,0 -3,2 -3,3 v 6 l 8,9 8,-9 v -6 c 0,-1 -1,-3 -3,-3 z"
       fill="#f9f9f9"
       stroke="#000000"
       stroke-linecap="square"
       stroke-opacity="0.19608"
       stroke-width="2"
       style="paint-order:stroke markers fill"
       id="path216" /></g><g
     id="slider-vert-scale-has-marks-above-active"
     transform="matrix(0,-1,-1,0,-46.639999,397.51972)"><rect
       x="265"
       y="-148.64"
       width="24"
       height="24"
       opacity="0"
       stroke-width="0.56569"
       style="paint-order:fill markers stroke"
       id="rect217" /><path
       d="m 272,-145.64 c -2,0 -3,2 -3,3 v 6 l 8,9 8,-9 v -6 c 0,-1 -1,-3 -3,-3 z"
       fill="#f2f2f2"
       stroke="#000000"
       stroke-linecap="square"
       stroke-opacity="0.19608"
       stroke-width="2"
       style="paint-order:stroke markers fill"
       id="path217" /></g><g
     id="slider-vert-scale-has-marks-above-insensitive"
     transform="matrix(0,-1,-1,0,-16.639999,397.51972)"><rect
       x="265"
       y="-148.64"
       width="24"
       height="24"
       opacity="0"
       stroke-width="0.56569"
       style="paint-order:fill markers stroke"
       id="rect218" /><path
       d="m 272,-145.64 c -2,0 -3,2 -3,3 v 6 l 8,9 8,-9 v -6 c 0,-1 -1,-3 -3,-3 z"
       fill="#ececec"
       stroke="#000000"
       stroke-linecap="square"
       stroke-opacity="0.19608"
       stroke-width="2"
       style="paint-order:stroke markers fill"
       id="path218" /></g><g
     id="combobox-arrow"
     transform="translate(56.180081,-36.154605)"><rect
       x="94"
       y="57.007"
       width="28"
       height="28"
       opacity="0"
       stroke-width="1.5565"
       style="paint-order:markers fill stroke"
       id="rect219" /><g
       transform="matrix(1.1178,0,0,1.1178,7.2803,299.26)"
       fill="#4d4d4d"
       fill-rule="evenodd"
       id="g220"><path
         d="m 89.779,-212.11 -4.5681,4.2826 c 0,0 0,1.2236 1.3094,1.2193 l 3.585,-3.6665 3.5892,3.6708 c 1.3052,0 1.3052,-1.2236 1.3052,-1.2236 l -4.5681,-4.2826 c 0,0 -0.32629,-0.30589 -0.65258,0 z"
         id="path219" /><path
         d="m 89.779,-197.18 -4.5681,-4.2826 c 0,0 0,-1.2236 1.3094,-1.2193 l 3.585,3.6665 3.5892,-3.6708 c 1.3052,0 1.3052,1.2236 1.3052,1.2236 l -4.5681,4.2826 c 0,0 -0.32629,0.30589 -0.65258,0 z"
         id="path220" /></g></g><g
     id="slider-horz-glass"
     transform="matrix(0.5,0,0,0.5,240,0)"><rect
       width="80"
       height="52"
       rx="26"
       ry="26"
       fill="none"
       stroke-width="1.3166"
       id="rect1"
       x="0"
       y="0" /><path
       d="M 5.0078,10.617 C 1.8564,14.9189 0,20.235 0,26 0,31.765 1.8564,37.081 5.0078,41.383 5.00248,41.25547 4.99988,41.12783 4.99999,41.00019 c 0,-4.9706 4.0294,-9 9,-9 h 5 c 3.324,0 6,-2.676 6,-6 0,-3.324 -2.676,-6 -6,-6 h -5 c -4.9706,0 -9,-4.0294 -9,-9 -1.108e-4,-0.12764 0.00249,-0.25528 0.00781,-0.38281 z"
       fill="#0088ff"
       id="path1" /></g><g
     transform="matrix(0,0.5,-0.5,0,266,36.87993)"
     id="slider-vert-glass"><rect
       width="80"
       height="52"
       rx="26"
       ry="26"
       fill="none"
       stroke-width="1.3166"
       id="rect1-3"
       x="0"
       y="0" /><path
       d="M 5.0078,10.617 C 1.8564,14.9189 0,20.235 0,26 0,31.765 1.8564,37.081 5.0078,41.383 5.00248,41.25547 4.99988,41.12783 4.99999,41.00019 c 0,-4.9706 4.0294,-9 9,-9 h 4.999999 c 3.324,0 6,-2.676 6,-6 0,-3.324 -2.676,-6 -6,-6 H 13.99999 c -4.9706,0 -9,-4.0294 -9,-9 -1.108e-4,-0.12764 0.00249,-0.25528 0.00781,-0.38281 z"
       fill="#0088ff"
       id="path1-6" /></g><g
     id="slider-horz-glass-blue"
     transform="matrix(0.5,0,0,0.5,280,0)"><rect
       width="80"
       height="52"
       rx="26"
       ry="26"
       fill="none"
       stroke-width="1.3166"
       id="rect221"
       x="0"
       y="0" /><path
       d="M 5.0078,10.617 C 1.8564,14.9189 0,20.235 0,26 0,31.765 1.8564,37.081 5.0078,41.383 5.00248,41.25547 4.99988,41.12783 4.99999,41.00019 c 0,-4.9706 4.0294,-9 9,-9 h 5 c 3.324,0 6,-2.676 6,-6 0,-3.324 -2.676,-6 -6,-6 h -5 c -4.9706,0 -9,-4.0294 -9,-9 -1.108e-4,-0.12764 0.00249,-0.25528 0.00781,-0.38281 z"
       fill="#0088ff"
       id="path221"
       style="fill:#2e7cf7;fill-opacity:1" /></g><g
     transform="matrix(0,0.5,-0.5,0,292,36.87993)"
     id="slider-vert-glass-blue"><rect
       width="80"
       height="52"
       rx="26"
       ry="26"
       fill="none"
       stroke-width="1.3166"
       id="rect222"
       x="0"
       y="0" /><path
       d="M 5.0078,10.617 C 1.8564,14.9189 0,20.235 0,26 0,31.765 1.8564,37.081 5.0078,41.383 5.00248,41.25547 4.99988,41.12783 4.99999,41.00019 c 0,-4.9706 4.0294,-9 9,-9 h 4.999999 c 3.324,0 6,-2.676 6,-6 0,-3.324 -2.676,-6 -6,-6 H 13.99999 c -4.9706,0 -9,-4.0294 -9,-9 -1.108e-4,-0.12764 0.00249,-0.25528 0.00781,-0.38281 z"
       fill="#0088ff"
       id="path222"
       style="fill:#2e7cf7;fill-opacity:1" /></g><g
     id="slider-horz-glass-purple"
     transform="matrix(0.5,0,0,0.5,320,0)"><rect
       width="80"
       height="52"
       rx="26"
       ry="26"
       fill="none"
       stroke-width="1.3166"
       id="rect223"
       x="0"
       y="0" /><path
       d="M 5.0078,10.617 C 1.8564,14.9189 0,20.235 0,26 0,31.765 1.8564,37.081 5.0078,41.383 5.00248,41.25547 4.99988,41.12783 4.99999,41.00019 c 0,-4.9706 4.0294,-9 9,-9 h 5 c 3.324,0 6,-2.676 6,-6 0,-3.324 -2.676,-6 -6,-6 h -5 c -4.9706,0 -9,-4.0294 -9,-9 -1.108e-4,-0.12764 0.00249,-0.25528 0.00781,-0.38281 z"
       fill="#0088ff"
       id="path223"
       style="fill:#9a57a3;fill-opacity:1" /></g><g
     id="slider-horz-glass-pink"
     transform="matrix(0.5,0,0,0.5,360,0)"><rect
       width="80"
       height="52"
       rx="26"
       ry="26"
       fill="none"
       stroke-width="1.3166"
       id="rect224"
       x="0"
       y="0" /><path
       d="M 5.0078,10.617 C 1.8564,14.9189 0,20.235 0,26 0,31.765 1.8564,37.081 5.0078,41.383 5.00248,41.25547 4.99988,41.12783 4.99999,41.00019 c 0,-4.9706 4.0294,-9 9,-9 h 5 c 3.324,0 6,-2.676 6,-6 0,-3.324 -2.676,-6 -6,-6 h -5 c -4.9706,0 -9,-4.0294 -9,-9 -1.108e-4,-0.12764 0.00249,-0.25528 0.00781,-0.38281 z"
       fill="#0088ff"
       id="path224"
       style="fill:#e55e9c;fill-opacity:1" /></g><g
     transform="matrix(0,0.5,-0.5,0,318,36.87993)"
     id="slider-vert-glass-purple"><rect
       width="80"
       height="52"
       rx="26"
       ry="26"
       fill="none"
       stroke-width="1.3166"
       id="rect225"
       x="0"
       y="0" /><path
       d="M 5.0078,10.617 C 1.8564,14.9189 0,20.235 0,26 0,31.765 1.8564,37.081 5.0078,41.383 5.00248,41.25547 4.99988,41.12783 4.99999,41.00019 c 0,-4.9706 4.0294,-9 9,-9 h 4.999999 c 3.324,0 6,-2.676 6,-6 0,-3.324 -2.676,-6 -6,-6 H 13.99999 c -4.9706,0 -9,-4.0294 -9,-9 -1.108e-4,-0.12764 0.00249,-0.25528 0.00781,-0.38281 z"
       fill="#0088ff"
       id="path225"
       style="fill:#9a57a3;fill-opacity:1" /></g><g
     transform="matrix(0,0.5,-0.5,0,344,36.87993)"
     id="slider-vert-glass-pink"><rect
       width="80"
       height="52"
       rx="26"
       ry="26"
       fill="none"
       stroke-width="1.3166"
       id="rect226"
       x="0"
       y="0" /><path
       d="M 5.0078,10.617 C 1.8564,14.9189 0,20.235 0,26 0,31.765 1.8564,37.081 5.0078,41.383 5.00248,41.25547 4.99988,41.12783 4.99999,41.00019 c 0,-4.9706 4.0294,-9 9,-9 h 4.999999 c 3.324,0 6,-2.676 6,-6 0,-3.324 -2.676,-6 -6,-6 H 13.99999 c -4.9706,0 -9,-4.0294 -9,-9 -1.108e-4,-0.12764 0.00249,-0.25528 0.00781,-0.38281 z"
       fill="#0088ff"
       id="path226"
       style="fill:#e55e9c;fill-opacity:1" /></g><g
     transform="matrix(0,0.5,-0.5,0,370,36.87993)"
     id="slider-vert-glass-red"><rect
       width="80"
       height="52"
       rx="26"
       ry="26"
       fill="none"
       stroke-width="1.3166"
       id="rect227"
       x="0"
       y="0" /><path
       d="M 5.0078,10.617 C 1.8564,14.9189 0,20.235 0,26 0,31.765 1.8564,37.081 5.0078,41.383 5.00248,41.25547 4.99988,41.12783 4.99999,41.00019 c 0,-4.9706 4.0294,-9 9,-9 h 4.999999 c 3.324,0 6,-2.676 6,-6 0,-3.324 -2.676,-6 -6,-6 H 13.99999 c -4.9706,0 -9,-4.0294 -9,-9 -1.108e-4,-0.12764 0.00249,-0.25528 0.00781,-0.38281 z"
       fill="#0088ff"
       id="path227"
       style="fill:#ed5f5d;fill-opacity:1" /></g><g
     transform="matrix(0,0.5,-0.5,0,396,36.87993)"
     id="slider-vert-glass-orange"><rect
       width="80"
       height="52"
       rx="26"
       ry="26"
       fill="none"
       stroke-width="1.3166"
       id="rect228"
       x="0"
       y="0" /><path
       d="M 5.0078,10.617 C 1.8564,14.9189 0,20.235 0,26 0,31.765 1.8564,37.081 5.0078,41.383 5.00248,41.25547 4.99988,41.12783 4.99999,41.00019 c 0,-4.9706 4.0294,-9 9,-9 h 4.999999 c 3.324,0 6,-2.676 6,-6 0,-3.324 -2.676,-6 -6,-6 H 13.99999 c -4.9706,0 -9,-4.0294 -9,-9 -1.108e-4,-0.12764 0.00249,-0.25528 0.00781,-0.38281 z"
       fill="#0088ff"
       id="path228"
       style="fill:#e9873a;fill-opacity:1" /></g><g
     transform="matrix(0,0.5,-0.5,0,422,36.87993)"
     id="slider-vert-glass-yellow"><rect
       width="80"
       height="52"
       rx="26"
       ry="26"
       fill="none"
       stroke-width="1.3166"
       id="rect229"
       x="0"
       y="0" /><path
       d="M 5.0078,10.617 C 1.8564,14.9189 0,20.235 0,26 0,31.765 1.8564,37.081 5.0078,41.383 5.00248,41.25547 4.99988,41.12783 4.99999,41.00019 c 0,-4.9706 4.0294,-9 9,-9 h 4.999999 c 3.324,0 6,-2.676 6,-6 0,-3.324 -2.676,-6 -6,-6 H 13.99999 c -4.9706,0 -9,-4.0294 -9,-9 -1.108e-4,-0.12764 0.00249,-0.25528 0.00781,-0.38281 z"
       fill="#0088ff"
       id="path229"
       style="fill:#f3ba4b;fill-opacity:1" /></g><g
     transform="matrix(0,0.5,-0.5,0,448,36.87993)"
     id="slider-vert-glass-green"><rect
       width="80"
       height="52"
       rx="26"
       ry="26"
       fill="none"
       stroke-width="1.3166"
       id="rect230"
       x="0"
       y="0" /><path
       d="M 5.0078,10.617 C 1.8564,14.9189 0,20.235 0,26 0,31.765 1.8564,37.081 5.0078,41.383 5.00248,41.25547 4.99988,41.12783 4.99999,41.00019 c 0,-4.9706 4.0294,-9 9,-9 h 4.999999 c 3.324,0 6,-2.676 6,-6 0,-3.324 -2.676,-6 -6,-6 H 13.99999 c -4.9706,0 -9,-4.0294 -9,-9 -1.108e-4,-0.12764 0.00249,-0.25528 0.00781,-0.38281 z"
       fill="#0088ff"
       id="path230"
       style="fill:#79b757;fill-opacity:1" /></g><g
     id="slider-horz-glass-red"
     transform="matrix(0.5,0,0,0.5,400,0)"><rect
       width="80"
       height="52"
       rx="26"
       ry="26"
       fill="none"
       stroke-width="1.3166"
       id="rect231"
       x="0"
       y="0" /><path
       d="M 5.0078,10.617 C 1.8564,14.9189 0,20.235 0,26 0,31.765 1.8564,37.081 5.0078,41.383 5.00248,41.25547 4.99988,41.12783 4.99999,41.00019 c 0,-4.9706 4.0294,-9 9,-9 h 5 c 3.324,0 6,-2.676 6,-6 0,-3.324 -2.676,-6 -6,-6 h -5 c -4.9706,0 -9,-4.0294 -9,-9 -1.108e-4,-0.12764 0.00249,-0.25528 0.00781,-0.38281 z"
       fill="#0088ff"
       id="path231"
       style="fill:#ed5f5d;fill-opacity:1" /></g><g
     id="slider-horz-glass-orange"
     transform="matrix(0.5,0,0,0.5,440,0)"><rect
       width="80"
       height="52"
       rx="26"
       ry="26"
       fill="none"
       stroke-width="1.3166"
       id="rect232"
       x="0"
       y="0" /><path
       d="M 5.0078,10.617 C 1.8564,14.9189 0,20.235 0,26 0,31.765 1.8564,37.081 5.0078,41.383 5.00248,41.25547 4.99988,41.12783 4.99999,41.00019 c 0,-4.9706 4.0294,-9 9,-9 h 5 c 3.324,0 6,-2.676 6,-6 0,-3.324 -2.676,-6 -6,-6 h -5 c -4.9706,0 -9,-4.0294 -9,-9 -1.108e-4,-0.12764 0.00249,-0.25528 0.00781,-0.38281 z"
       fill="#0088ff"
       id="path232"
       style="fill:#e9873a;fill-opacity:1" /></g><g
     id="slider-horz-glass-yellow"
     transform="matrix(0.5,0,0,0.5,480,0)"><rect
       width="80"
       height="52"
       rx="26"
       ry="26"
       fill="none"
       stroke-width="1.3166"
       id="rect233"
       x="0"
       y="0" /><path
       d="M 5.0078,10.617 C 1.8564,14.9189 0,20.235 0,26 0,31.765 1.8564,37.081 5.0078,41.383 5.00248,41.25547 4.99988,41.12783 4.99999,41.00019 c 0,-4.9706 4.0294,-9 9,-9 h 5 c 3.324,0 6,-2.676 6,-6 0,-3.324 -2.676,-6 -6,-6 h -5 c -4.9706,0 -9,-4.0294 -9,-9 -1.108e-4,-0.12764 0.00249,-0.25528 0.00781,-0.38281 z"
       fill="#0088ff"
       id="path233"
       style="fill:#f3ba4b;fill-opacity:1" /></g><g
     id="slider-horz-glass-green"
     transform="matrix(0.5,0,0,0.5,520,0)"><rect
       width="80"
       height="52"
       rx="26"
       ry="26"
       fill="none"
       stroke-width="1.3166"
       id="rect234"
       x="0"
       y="0" /><path
       d="M 5.0078,10.617 C 1.8564,14.9189 0,20.235 0,26 0,31.765 1.8564,37.081 5.0078,41.383 5.00248,41.25547 4.99988,41.12783 4.99999,41.00019 c 0,-4.9706 4.0294,-9 9,-9 h 5 c 3.324,0 6,-2.676 6,-6 0,-3.324 -2.676,-6 -6,-6 h -5 c -4.9706,0 -9,-4.0294 -9,-9 -1.108e-4,-0.12764 0.00249,-0.25528 0.00781,-0.38281 z"
       fill="#0088ff"
       id="path234"
       style="fill:#79b757;fill-opacity:1" /></g><g
     transform="matrix(0,0.5,-0.5,0,474,36.87993)"
     id="slider-vert-glass-grey"><rect
       width="80"
       height="52"
       rx="26"
       ry="26"
       fill="none"
       stroke-width="1.3166"
       id="rect235"
       x="0"
       y="0" /><path
       d="M 5.0078,10.617 C 1.8564,14.9189 0,20.235 0,26 0,31.765 1.8564,37.081 5.0078,41.383 5.00248,41.25547 4.99988,41.12783 4.99999,41.00019 c 0,-4.9706 4.0294,-9 9,-9 h 4.999999 c 3.324,0 6,-2.676 6,-6 0,-3.324 -2.676,-6 -6,-6 H 13.99999 c -4.9706,0 -9,-4.0294 -9,-9 -1.108e-4,-0.12764 0.00249,-0.25528 0.00781,-0.38281 z"
       fill="#0088ff"
       id="path235"
       style="fill:#8c8c8c;fill-opacity:1" /></g><g
     id="slider-horz-glass-grey"
     transform="matrix(0.5,0,0,0.5,560,0)"><rect
       width="80"
       height="52"
       rx="26"
       ry="26"
       fill="none"
       stroke-width="1.3166"
       id="rect236"
       x="0"
       y="0" /><path
       d="M 5.0078,10.617 C 1.8564,14.9189 0,20.235 0,26 0,31.765 1.8564,37.081 5.0078,41.383 5.00248,41.25547 4.99988,41.12783 4.99999,41.00019 c 0,-4.9706 4.0294,-9 9,-9 h 5 c 3.324,0 6,-2.676 6,-6 0,-3.324 -2.676,-6 -6,-6 h -5 c -4.9706,0 -9,-4.0294 -9,-9 -1.108e-4,-0.12764 0.00249,-0.25528 0.00781,-0.38281 z"
       fill="#0088ff"
       id="path236"
       style="fill:#8c8c8c;fill-opacity:1" /></g><g
     id="slider-horz-glass-nord"
     transform="matrix(0.5,0,0,0.5,240,76.87993)"><rect
       width="80"
       height="52"
       rx="26"
       ry="26"
       fill="none"
       stroke-width="1.3166"
       id="rect237"
       x="0"
       y="0" /><path
       d="M 5.0078,10.617 C 1.8564,14.9189 0,20.235 0,26 0,31.765 1.8564,37.081 5.0078,41.383 5.00248,41.25547 4.99988,41.12783 4.99999,41.00019 c 0,-4.9706 4.0294,-9 9,-9 h 5 c 3.324,0 6,-2.676 6,-6 0,-3.324 -2.676,-6 -6,-6 h -5 c -4.9706,0 -9,-4.0294 -9,-9 -1.108e-4,-0.12764 0.00249,-0.25528 0.00781,-0.38281 z"
       fill="#0088ff"
       id="path237"
       style="fill:#5271ad;fill-opacity:1" /></g><g
     transform="matrix(0,0.5,-0.5,0,266,113.75986)"
     id="slider-vert-glass-nord"><rect
       width="80"
       height="52"
       rx="26"
       ry="26"
       fill="none"
       stroke-width="1.3166"
       id="rect238"
       x="0"
       y="0" /><path
       d="M 5.0078,10.617 C 1.8564,14.9189 0,20.235 0,26 0,31.765 1.8564,37.081 5.0078,41.383 5.00248,41.25547 4.99988,41.12783 4.99999,41.00019 c 0,-4.9706 4.0294,-9 9,-9 h 4.999999 c 3.324,0 6,-2.676 6,-6 0,-3.324 -2.676,-6 -6,-6 H 13.99999 c -4.9706,0 -9,-4.0294 -9,-9 -1.108e-4,-0.12764 0.00249,-0.25528 0.00781,-0.38281 z"
       fill="#0088ff"
       id="path238"
       style="fill:#5271ad;fill-opacity:1" /></g><g
     id="slider-horz-glass-blue-nord"
     transform="matrix(0.5,0,0,0.5,280,76.87993)"><rect
       width="80"
       height="52"
       rx="26"
       ry="26"
       fill="none"
       stroke-width="1.3166"
       id="rect239"
       x="0"
       y="0" /><path
       d="M 5.0078,10.617 C 1.8564,14.9189 0,20.235 0,26 0,31.765 1.8564,37.081 5.0078,41.383 5.00248,41.25547 4.99988,41.12783 4.99999,41.00019 c 0,-4.9706 4.0294,-9 9,-9 h 5 c 3.324,0 6,-2.676 6,-6 0,-3.324 -2.676,-6 -6,-6 h -5 c -4.9706,0 -9,-4.0294 -9,-9 -1.108e-4,-0.12764 0.00249,-0.25528 0.00781,-0.38281 z"
       fill="#0088ff"
       id="path239"
       style="fill:#4c7bd9;fill-opacity:1" /></g><g
     transform="matrix(0,0.5,-0.5,0,292,113.75986)"
     id="slider-vert-glass-blue-nord"><rect
       width="80"
       height="52"
       rx="26"
       ry="26"
       fill="none"
       stroke-width="1.3166"
       id="rect240"
       x="0"
       y="0" /><path
       d="M 5.0078,10.617 C 1.8564,14.9189 0,20.235 0,26 0,31.765 1.8564,37.081 5.0078,41.383 5.00248,41.25547 4.99988,41.12783 4.99999,41.00019 c 0,-4.9706 4.0294,-9 9,-9 h 4.999999 c 3.324,0 6,-2.676 6,-6 0,-3.324 -2.676,-6 -6,-6 H 13.99999 c -4.9706,0 -9,-4.0294 -9,-9 -1.108e-4,-0.12764 0.00249,-0.25528 0.00781,-0.38281 z"
       fill="#0088ff"
       id="path240"
       style="fill:#4c7bd9;fill-opacity:1" /></g><g
     id="slider-horz-glass-purple-nord"
     transform="matrix(0.5,0,0,0.5,320,76.87993)"><rect
       width="80"
       height="52"
       rx="26"
       ry="26"
       fill="none"
       stroke-width="1.3166"
       id="rect241"
       x="0"
       y="0" /><path
       d="M 5.0078,10.617 C 1.8564,14.9189 0,20.235 0,26 0,31.765 1.8564,37.081 5.0078,41.383 5.00248,41.25547 4.99988,41.12783 4.99999,41.00019 c 0,-4.9706 4.0294,-9 9,-9 h 5 c 3.324,0 6,-2.676 6,-6 0,-3.324 -2.676,-6 -6,-6 h -5 c -4.9706,0 -9,-4.0294 -9,-9 -1.108e-4,-0.12764 0.00249,-0.25528 0.00781,-0.38281 z"
       fill="#0088ff"
       id="path241"
       style="fill:#b57daa;fill-opacity:1" /></g><g
     id="slider-horz-glass-pink-nord"
     transform="matrix(0.5,0,0,0.5,360,76.87993)"><rect
       width="80"
       height="52"
       rx="26"
       ry="26"
       fill="none"
       stroke-width="1.3166"
       id="rect242"
       x="0"
       y="0" /><path
       d="M 5.0078,10.617 C 1.8564,14.9189 0,20.235 0,26 0,31.765 1.8564,37.081 5.0078,41.383 5.00248,41.25547 4.99988,41.12783 4.99999,41.00019 c 0,-4.9706 4.0294,-9 9,-9 h 5 c 3.324,0 6,-2.676 6,-6 0,-3.324 -2.676,-6 -6,-6 h -5 c -4.9706,0 -9,-4.0294 -9,-9 -1.108e-4,-0.12764 0.00249,-0.25528 0.00781,-0.38281 z"
       fill="#0088ff"
       id="path242"
       style="fill:#cd7092;fill-opacity:1" /></g><g
     transform="matrix(0,0.5,-0.5,0,318,113.75986)"
     id="slider-vert-glass-purple-nord"><rect
       width="80"
       height="52"
       rx="26"
       ry="26"
       fill="none"
       stroke-width="1.3166"
       id="rect243"
       x="0"
       y="0" /><path
       d="M 5.0078,10.617 C 1.8564,14.9189 0,20.235 0,26 0,31.765 1.8564,37.081 5.0078,41.383 5.00248,41.25547 4.99988,41.12783 4.99999,41.00019 c 0,-4.9706 4.0294,-9 9,-9 h 4.999999 c 3.324,0 6,-2.676 6,-6 0,-3.324 -2.676,-6 -6,-6 H 13.99999 c -4.9706,0 -9,-4.0294 -9,-9 -1.108e-4,-0.12764 0.00249,-0.25528 0.00781,-0.38281 z"
       fill="#0088ff"
       id="path243"
       style="fill:#b57daa;fill-opacity:1" /></g><g
     transform="matrix(0,0.5,-0.5,0,344,113.75986)"
     id="slider-vert-glass-pink-nord"><rect
       width="80"
       height="52"
       rx="26"
       ry="26"
       fill="none"
       stroke-width="1.3166"
       id="rect244"
       x="0"
       y="0" /><path
       d="M 5.0078,10.617 C 1.8564,14.9189 0,20.235 0,26 0,31.765 1.8564,37.081 5.0078,41.383 5.00248,41.25547 4.99988,41.12783 4.99999,41.00019 c 0,-4.9706 4.0294,-9 9,-9 h 4.999999 c 3.324,0 6,-2.676 6,-6 0,-3.324 -2.676,-6 -6,-6 H 13.99999 c -4.9706,0 -9,-4.0294 -9,-9 -1.108e-4,-0.12764 0.00249,-0.25528 0.00781,-0.38281 z"
       fill="#0088ff"
       id="path244"
       style="fill:#cd7092;fill-opacity:1" /></g><g
     transform="matrix(0,0.5,-0.5,0,370,113.75986)"
     id="slider-vert-glass-red-nord"><rect
       width="80"
       height="52"
       rx="26"
       ry="26"
       fill="none"
       stroke-width="1.3166"
       id="rect245"
       x="0"
       y="0" /><path
       d="M 5.0078,10.617 C 1.8564,14.9189 0,20.235 0,26 0,31.765 1.8564,37.081 5.0078,41.383 5.00248,41.25547 4.99988,41.12783 4.99999,41.00019 c 0,-4.9706 4.0294,-9 9,-9 h 4.999999 c 3.324,0 6,-2.676 6,-6 0,-3.324 -2.676,-6 -6,-6 H 13.99999 c -4.9706,0 -9,-4.0294 -9,-9 -1.108e-4,-0.12764 0.00249,-0.25528 0.00781,-0.38281 z"
       fill="#0088ff"
       id="path245"
       style="fill:#c35b65;fill-opacity:1" /></g><g
     transform="matrix(0,0.5,-0.5,0,396,113.75986)"
     id="slider-vert-glass-orange-nord"><rect
       width="80"
       height="52"
       rx="26"
       ry="26"
       fill="none"
       stroke-width="1.3166"
       id="rect246"
       x="0"
       y="0" /><path
       d="M 5.0078,10.617 C 1.8564,14.9189 0,20.235 0,26 0,31.765 1.8564,37.081 5.0078,41.383 5.00248,41.25547 4.99988,41.12783 4.99999,41.00019 c 0,-4.9706 4.0294,-9 9,-9 h 4.999999 c 3.324,0 6,-2.676 6,-6 0,-3.324 -2.676,-6 -6,-6 H 13.99999 c -4.9706,0 -9,-4.0294 -9,-9 -1.108e-4,-0.12764 0.00249,-0.25528 0.00781,-0.38281 z"
       fill="#0088ff"
       id="path246"
       style="fill:#d0846c;fill-opacity:1" /></g><g
     transform="matrix(0,0.5,-0.5,0,422,113.75986)"
     id="slider-vert-glass-yellow-nord"><rect
       width="80"
       height="52"
       rx="26"
       ry="26"
       fill="none"
       stroke-width="1.3166"
       id="rect247"
       x="0"
       y="0" /><path
       d="M 5.0078,10.617 C 1.8564,14.9189 0,20.235 0,26 0,31.765 1.8564,37.081 5.0078,41.383 5.00248,41.25547 4.99988,41.12783 4.99999,41.00019 c 0,-4.9706 4.0294,-9 9,-9 h 4.999999 c 3.324,0 6,-2.676 6,-6 0,-3.324 -2.676,-6 -6,-6 H 13.99999 c -4.9706,0 -9,-4.0294 -9,-9 -1.108e-4,-0.12764 0.00249,-0.25528 0.00781,-0.38281 z"
       fill="#0088ff"
       id="path247"
       style="fill:#e4b558;fill-opacity:1" /></g><g
     transform="matrix(0,0.5,-0.5,0,448,113.75986)"
     id="slider-vert-glass-green-nord"><rect
       width="80"
       height="52"
       rx="26"
       ry="26"
       fill="none"
       stroke-width="1.3166"
       id="rect248"
       x="0"
       y="0" /><path
       d="M 5.0078,10.617 C 1.8564,14.9189 0,20.235 0,26 0,31.765 1.8564,37.081 5.0078,41.383 5.00248,41.25547 4.99988,41.12783 4.99999,41.00019 c 0,-4.9706 4.0294,-9 9,-9 h 4.999999 c 3.324,0 6,-2.676 6,-6 0,-3.324 -2.676,-6 -6,-6 H 13.99999 c -4.9706,0 -9,-4.0294 -9,-9 -1.108e-4,-0.12764 0.00249,-0.25528 0.00781,-0.38281 z"
       fill="#0088ff"
       id="path248"
       style="fill:#82ac5d;fill-opacity:1" /></g><g
     id="slider-horz-glass-red-nord"
     transform="matrix(0.5,0,0,0.5,400,76.87993)"><rect
       width="80"
       height="52"
       rx="26"
       ry="26"
       fill="none"
       stroke-width="1.3166"
       id="rect249"
       x="0"
       y="0" /><path
       d="M 5.0078,10.617 C 1.8564,14.9189 0,20.235 0,26 0,31.765 1.8564,37.081 5.0078,41.383 5.00248,41.25547 4.99988,41.12783 4.99999,41.00019 c 0,-4.9706 4.0294,-9 9,-9 h 5 c 3.324,0 6,-2.676 6,-6 0,-3.324 -2.676,-6 -6,-6 h -5 c -4.9706,0 -9,-4.0294 -9,-9 -1.108e-4,-0.12764 0.00249,-0.25528 0.00781,-0.38281 z"
       fill="#0088ff"
       id="path249"
       style="fill:#c35b65;fill-opacity:1" /></g><g
     id="slider-horz-glass-orange-nord"
     transform="matrix(0.5,0,0,0.5,440,76.87993)"><rect
       width="80"
       height="52"
       rx="26"
       ry="26"
       fill="none"
       stroke-width="1.3166"
       id="rect250"
       x="0"
       y="0" /><path
       d="M 5.0078,10.617 C 1.8564,14.9189 0,20.235 0,26 0,31.765 1.8564,37.081 5.0078,41.383 5.00248,41.25547 4.99988,41.12783 4.99999,41.00019 c 0,-4.9706 4.0294,-9 9,-9 h 5 c 3.324,0 6,-2.676 6,-6 0,-3.324 -2.676,-6 -6,-6 h -5 c -4.9706,0 -9,-4.0294 -9,-9 -1.108e-4,-0.12764 0.00249,-0.25528 0.00781,-0.38281 z"
       fill="#0088ff"
       id="path250"
       style="fill:#d0846c;fill-opacity:1" /></g><g
     id="slider-horz-glass-yellow-nord"
     transform="matrix(0.5,0,0,0.5,480,76.87993)"><rect
       width="80"
       height="52"
       rx="26"
       ry="26"
       fill="none"
       stroke-width="1.3166"
       id="rect251"
       x="0"
       y="0" /><path
       d="M 5.0078,10.617 C 1.8564,14.9189 0,20.235 0,26 0,31.765 1.8564,37.081 5.0078,41.383 5.00248,41.25547 4.99988,41.12783 4.99999,41.00019 c 0,-4.9706 4.0294,-9 9,-9 h 5 c 3.324,0 6,-2.676 6,-6 0,-3.324 -2.676,-6 -6,-6 h -5 c -4.9706,0 -9,-4.0294 -9,-9 -1.108e-4,-0.12764 0.00249,-0.25528 0.00781,-0.38281 z"
       fill="#0088ff"
       id="path251"
       style="fill:#e4b558;fill-opacity:1" /></g><g
     id="slider-horz-glass-green-nord"
     transform="matrix(0.5,0,0,0.5,520,76.87993)"><rect
       width="80"
       height="52"
       rx="26"
       ry="26"
       fill="none"
       stroke-width="1.3166"
       id="rect252"
       x="0"
       y="0" /><path
       d="M 5.0078,10.617 C 1.8564,14.9189 0,20.235 0,26 0,31.765 1.8564,37.081 5.0078,41.383 5.00248,41.25547 4.99988,41.12783 4.99999,41.00019 c 0,-4.9706 4.0294,-9 9,-9 h 5 c 3.324,0 6,-2.676 6,-6 0,-3.324 -2.676,-6 -6,-6 h -5 c -4.9706,0 -9,-4.0294 -9,-9 -1.108e-4,-0.12764 0.00249,-0.25528 0.00781,-0.38281 z"
       fill="#0088ff"
       id="path252"
       style="fill:#82ac5d;fill-opacity:1" /></g><g
     transform="matrix(0,0.5,-0.5,0,474,113.75986)"
     id="slider-vert-glass-grey-nord"><rect
       width="80"
       height="52"
       rx="26"
       ry="26"
       fill="none"
       stroke-width="1.3166"
       id="rect253"
       x="0"
       y="0" /><path
       d="M 5.0078,10.617 C 1.8564,14.9189 0,20.235 0,26 0,31.765 1.8564,37.081 5.0078,41.383 5.00248,41.25547 4.99988,41.12783 4.99999,41.00019 c 0,-4.9706 4.0294,-9 9,-9 h 4.999999 c 3.324,0 6,-2.676 6,-6 0,-3.324 -2.676,-6 -6,-6 H 13.99999 c -4.9706,0 -9,-4.0294 -9,-9 -1.108e-4,-0.12764 0.00249,-0.25528 0.00781,-0.38281 z"
       fill="#0088ff"
       id="path253"
       style="fill:#8999a9;fill-opacity:1" /></g><g
     id="slider-horz-glass-grey-nord"
     transform="matrix(0.5,0,0,0.5,560,76.87993)"><rect
       width="80"
       height="52"
       rx="26"
       ry="26"
       fill="none"
       stroke-width="1.3166"
       id="rect254"
       x="0"
       y="0" /><path
       d="M 5.0078,10.617 C 1.8564,14.9189 0,20.235 0,26 0,31.765 1.8564,37.081 5.0078,41.383 5.00248,41.25547 4.99988,41.12783 4.99999,41.00019 c 0,-4.9706 4.0294,-9 9,-9 h 5 c 3.324,0 6,-2.676 6,-6 0,-3.324 -2.676,-6 -6,-6 h -5 c -4.9706,0 -9,-4.0294 -9,-9 -1.108e-4,-0.12764 0.00249,-0.25528 0.00781,-0.38281 z"
       fill="#0088ff"
       id="path254"
       style="fill:#8999a9;fill-opacity:1" /></g></svg>
