<svg width="24" height="24" version="1.1" viewBox="0 0 24 24" xmlns="http://www.w3.org/2000/svg">
 <rect x="4" y="4" width="16" height="16" fill="none"/>
 <rect x="3" y="3" width="18" height="18" rx="5" ry="5" fill="#0088ff"/>
 <rect transform="rotate(45)" x="13.79" y="1.1834" width="3" height="1" fill-opacity="0"/>
 <path d="m15.806 8.2653c-0.30486 0-0.60961 0.1158-0.84321 0.3494l-4.2161 4.2161-1.7633-1.761c-0.42502-0.42502-1.1424-0.39264-1.6095 0.07454-0.46719 0.46718-0.50189 1.1869-0.076923 1.6119l2.6066 2.6042 0.0768 0.07686c0.42502 0.42502 1.1424 0.39032 1.6095-0.07686l5.0593-5.0593c0.46719-0.46719 0.46719-1.2192 0-1.6865-0.2336-0.2336-0.53836-0.3494-0.84321-0.3494z" fill="#ffffff"/>
</svg>
